<?xml version="1.0"?>
<svg xmlns="http://www.w3.org/2000/svg" xmlns:lc="http://www.librecad.org" xmlns:xlink="http://www.w3.org/1999/xlink" width="346.28mm" height="133mm" viewBox="0 0 346.28 133">
    <g lc:layername="0" lc:is_locked="false" lc:is_construction="false" fill="none" stroke="black" stroke-width="1">
        <path d="M7,119 A7,7 0 0,0 7,133 "/>
        <line x1="173.14" y1="119" x2="7" y2="119"/>
        <line x1="7" y1="133" x2="173.14" y2="133"/>
        <circle cx="7" cy="126" r="2.6"/>
        <circle cx="173.14" cy="126" r="2.6"/>
        <path d="M173.14,133 A7,7 0 0,0 173.14,119 "/>
        <path d="M7,102 A7,7 0 0,0 7,116 "/>
        <line x1="173.14" y1="102" x2="7" y2="102"/>
        <line x1="7" y1="116" x2="173.14" y2="116"/>
        <circle cx="7" cy="109" r="2.6"/>
        <circle cx="173.14" cy="109" r="2.6"/>
        <path d="M173.14,116 A7,7 0 0,0 173.14,102 "/>
        <path d="M7,85 A7,7 0 0,0 7,99 "/>
        <line x1="173.14" y1="85" x2="7" y2="85"/>
        <line x1="7" y1="99" x2="173.14" y2="99"/>
        <circle cx="7" cy="92" r="2.6"/>
        <circle cx="173.14" cy="92" r="2.6"/>
        <path d="M173.14,99 A7,7 0 0,0 173.14,85 "/>
        <path d="M7,68 A7,7 0 0,0 7,82 "/>
        <line x1="173.14" y1="68" x2="7" y2="68"/>
        <line x1="7" y1="82" x2="173.14" y2="82"/>
        <circle cx="7" cy="75" r="2.6"/>
        <circle cx="173.14" cy="75" r="2.6"/>
        <path d="M173.14,82 A7,7 0 0,0 173.14,68 "/>
        <path d="M7,51 A7,7 0 0,0 7,65 "/>
        <line x1="173.14" y1="51" x2="7" y2="51"/>
        <line x1="7" y1="65" x2="173.14" y2="65"/>
        <circle cx="7" cy="58" r="2.6"/>
        <circle cx="173.14" cy="58" r="2.6"/>
        <path d="M7,34 A7,7 0 0,0 7,48 "/>
        <line x1="173.14" y1="34" x2="7" y2="34"/>
        <line x1="7" y1="48" x2="173.14" y2="48"/>
        <circle cx="7" cy="41" r="2.6"/>
        <circle cx="173.14" cy="41" r="2.6"/>
        <path d="M7,17 A7,7 0 0,0 7,31 "/>
        <line x1="173.14" y1="17" x2="7" y2="17"/>
        <line x1="7" y1="31" x2="173.14" y2="31"/>
        <circle cx="7" cy="24" r="2.6"/>
        <circle cx="173.14" cy="24" r="2.6"/>
        <path d="M7,0 A7,7 0 0,0 7,14 "/>
        <line x1="173.14" y1="0" x2="7" y2="0"/>
        <line x1="7" y1="14" x2="173.14" y2="14"/>
        <circle cx="7" cy="7" r="2.6"/>
        <circle cx="173.14" cy="7" r="2.6"/>
        <line x1="339.28" y1="51" x2="173.14" y2="51"/>
        <line x1="173.14" y1="65" x2="339.28" y2="65"/>
        <line x1="339.28" y1="34" x2="173.14" y2="34"/>
        <line x1="173.14" y1="48" x2="339.28" y2="48"/>
        <line x1="339.28" y1="17" x2="173.14" y2="17"/>
        <line x1="173.14" y1="31" x2="339.28" y2="31"/>
        <line x1="339.28" y1="0" x2="173.14" y2="0"/>
        <line x1="173.14" y1="14" x2="339.28" y2="14"/>
        <circle cx="339.28" cy="58" r="2.6"/>
        <circle cx="339.28" cy="41" r="2.6"/>
        <circle cx="339.28" cy="24" r="2.6"/>
        <circle cx="339.28" cy="7" r="2.6"/>
        <path d="M339.28,65 A7,7 0 0,0 339.28,51 "/>
        <path d="M339.28,48 A7,7 0 0,0 339.28,34 "/>
        <path d="M339.28,31 A7,7 0 0,0 339.28,17 "/>
        <path d="M339.28,14 A7,7 0 0,0 339.28,0 "/>
    </g>
</svg>
